<?xml version="1.0" encoding="us-ascii" standalone="no"?><svg xmlns="http://www.w3.org/2000/svg" xmlns:xlink="http://www.w3.org/1999/xlink" contentStyleType="text/css" height="853px" preserveAspectRatio="none" style="width:1009px;height:853px;background:#FFFFFF;" version="1.1" viewBox="0 0 1009 853" width="1009px" zoomAndPan="magnify"><defs><filter height="300%" id="fjqtaa9e58qy" width="300%" x="-1" y="-1"><feGaussianBlur result="blurOut" stdDeviation="2.0"/><feColorMatrix in="blurOut" result="blurOut2" type="matrix" values="0 0 0 0 0 0 0 0 0 0 0 0 0 0 0 0 0 0 .4 0"/><feOffset dx="4.0" dy="4.0" in="blurOut2" result="blurOut3"/><feBlend in="SourceGraphic" in2="blurOut3" mode="normal"/></filter></defs><g><text fill="#000000" font-family="sans-serif" font-size="14" font-weight="bold" lengthAdjust="spacing" textLength="126" x="436.5" y="27.9951">OIDC Code Flow</text><rect fill="#ADD8E6" height="804.6563" style="stroke:#A80036;stroke-width:1.0;" width="132" x="143" y="43.2969"/><text fill="#000000" font-family="sans-serif" font-size="13" font-weight="bold" lengthAdjust="spacing" textLength="69" x="174.5" y="55.3638">3rd party</text><rect fill="#90EE90" height="804.6563" style="stroke:#A80036;stroke-width:1.0;" width="234" x="373" y="43.2969"/><text fill="#000000" font-family="sans-serif" font-size="13" font-weight="bold" lengthAdjust="spacing" textLength="108" x="436" y="55.3638">Open Platform</text><line style="stroke:#A80036;stroke-width:1.0;stroke-dasharray:5.0,5.0;" x1="56" x2="56" y1="125.5938" y2="594.3203"/><line style="stroke:#A80036;stroke-width:1.0;stroke-dasharray:1.0,4.0;" x1="56" x2="56" y1="594.3203" y2="635.125"/><line style="stroke:#A80036;stroke-width:1.0;stroke-dasharray:5.0,5.0;" x1="56" x2="56" y1="635.125" y2="761.6563"/><line style="stroke:#A80036;stroke-width:1.0;stroke-dasharray:5.0,5.0;" x1="209" x2="209" y1="125.5938" y2="594.3203"/><line style="stroke:#A80036;stroke-width:1.0;stroke-dasharray:1.0,4.0;" x1="209" x2="209" y1="594.3203" y2="635.125"/><line style="stroke:#A80036;stroke-width:1.0;stroke-dasharray:5.0,5.0;" x1="209" x2="209" y1="635.125" y2="761.6563"/><line style="stroke:#A80036;stroke-width:1.0;stroke-dasharray:5.0,5.0;" x1="490" x2="490" y1="125.5938" y2="594.3203"/><line style="stroke:#A80036;stroke-width:1.0;stroke-dasharray:1.0,4.0;" x1="490" x2="490" y1="594.3203" y2="635.125"/><line style="stroke:#A80036;stroke-width:1.0;stroke-dasharray:5.0,5.0;" x1="490" x2="490" y1="635.125" y2="761.6563"/><text fill="#000000" font-family="sans-serif" font-size="14" lengthAdjust="spacing" textLength="96" x="5" y="122.292">End User (EU)</text><ellipse cx="56" cy="52.2969" fill="#FEFECE" filter="url(#fjqtaa9e58qy)" rx="8" ry="8" style="stroke:#A80036;stroke-width:2.0;"/><path d="M56,60.2969 L56,87.2969 M43,68.2969 L69,68.2969 M56,87.2969 L43,102.2969 M56,87.2969 L69,102.2969 " fill="none" filter="url(#fjqtaa9e58qy)" style="stroke:#A80036;stroke-width:2.0;"/><text fill="#000000" font-family="sans-serif" font-size="14" lengthAdjust="spacing" textLength="96" x="5" y="773.6514">End User (EU)</text><ellipse cx="56" cy="786.9531" fill="#FEFECE" filter="url(#fjqtaa9e58qy)" rx="8" ry="8" style="stroke:#A80036;stroke-width:2.0;"/><path d="M56,794.9531 L56,821.9531 M43,802.9531 L69,802.9531 M56,821.9531 L43,836.9531 M56,821.9531 L69,836.9531 " fill="none" filter="url(#fjqtaa9e58qy)" style="stroke:#A80036;stroke-width:2.0;"/><rect fill="#FEFECE" filter="url(#fjqtaa9e58qy)" height="46.5938" style="stroke:#A80036;stroke-width:1.5;" width="120" x="147" y="74"/><text fill="#000000" font-family="sans-serif" font-size="14" lengthAdjust="spacing" textLength="92" x="159" y="93.9951">3rd party App</text><text fill="#000000" font-family="sans-serif" font-size="14" lengthAdjust="spacing" textLength="106" x="154" y="110.292">User Agent(RP)</text><rect fill="#FEFECE" filter="url(#fjqtaa9e58qy)" height="46.5938" style="stroke:#A80036;stroke-width:1.5;" width="120" x="147" y="760.6563"/><text fill="#000000" font-family="sans-serif" font-size="14" lengthAdjust="spacing" textLength="92" x="159" y="780.6514">3rd party App</text><text fill="#000000" font-family="sans-serif" font-size="14" lengthAdjust="spacing" textLength="106" x="154" y="796.9482">User Agent(RP)</text><rect fill="#FEFECE" filter="url(#fjqtaa9e58qy)" height="30.2969" style="stroke:#A80036;stroke-width:1.5;" width="222" x="377" y="90.2969"/><text fill="#000000" font-family="sans-serif" font-size="14" lengthAdjust="spacing" textLength="208" x="384" y="110.292">OIDC Authorization Server(OP)</text><rect fill="#FEFECE" filter="url(#fjqtaa9e58qy)" height="30.2969" style="stroke:#A80036;stroke-width:1.5;" width="222" x="377" y="760.6563"/><text fill="#000000" font-family="sans-serif" font-size="14" lengthAdjust="spacing" textLength="208" x="384" y="780.6514">OIDC Authorization Server(OP)</text><rect fill="#EEEEEE" filter="url(#fjqtaa9e58qy)" height="3" style="stroke:#EEEEEE;stroke-width:1.0;" width="1000" x="0" y="156.1602"/><line style="stroke:#000000;stroke-width:1.0;" x1="0" x2="1000" y1="156.1602" y2="156.1602"/><line style="stroke:#000000;stroke-width:1.0;" x1="0" x2="1000" y1="159.1602" y2="159.1602"/><rect fill="#EEEEEE" filter="url(#fjqtaa9e58qy)" height="23.1328" style="stroke:#000000;stroke-width:2.0;" width="198" x="401" y="145.5938"/><text fill="#000000" font-family="sans-serif" font-size="13" font-weight="bold" lengthAdjust="spacing" textLength="184" x="407" y="161.6606">Issue Authorization Code</text><polygon fill="#A80036" points="197,195.8594,207,199.8594,197,203.8594,201,199.8594" style="stroke:#A80036;stroke-width:1.0;"/><line style="stroke:#A80036;stroke-width:1.0;" x1="56" x2="203" y1="199.8594" y2="199.8594"/><text fill="#000000" font-family="sans-serif" font-size="13" font-weight="bold" lengthAdjust="spacing" textLength="9" x="63" y="194.7935">1</text><text fill="#000000" font-family="sans-serif" font-size="13" lengthAdjust="spacing" textLength="99" x="76" y="194.7935">Access 3rd App</text><polygon fill="#A80036" points="478,224.9922,488,228.9922,478,232.9922,482,228.9922" style="stroke:#A80036;stroke-width:1.0;"/><line style="stroke:#A80036;stroke-width:1.0;" x1="209" x2="484" y1="228.9922" y2="228.9922"/><text fill="#000000" font-family="sans-serif" font-size="13" font-weight="bold" lengthAdjust="spacing" textLength="9" x="216" y="223.9263">2</text><text fill="#000000" font-family="sans-serif" font-size="13" lengthAdjust="spacing" textLength="151" x="229" y="223.9263">Redirect to OIDC Server</text><line style="stroke:#A80036;stroke-width:1.0;" x1="490" x2="532" y1="258.125" y2="258.125"/><line style="stroke:#A80036;stroke-width:1.0;" x1="532" x2="532" y1="258.125" y2="271.125"/><line style="stroke:#A80036;stroke-width:1.0;" x1="491" x2="532" y1="271.125" y2="271.125"/><polygon fill="#A80036" points="501,267.125,491,271.125,501,275.125,497,271.125" style="stroke:#A80036;stroke-width:1.0;"/><text fill="#000000" font-family="sans-serif" font-size="13" font-weight="bold" lengthAdjust="spacing" textLength="9" x="497" y="253.0591">3</text><text fill="#000000" font-family="sans-serif" font-size="13" lengthAdjust="spacing" textLength="201" x="510" y="253.0591">Not login, redirect to login page</text><polygon fill="#A80036" points="478,296.2578,488,300.2578,478,304.2578,482,300.2578" style="stroke:#A80036;stroke-width:1.0;"/><line style="stroke:#A80036;stroke-width:1.0;" x1="56" x2="484" y1="300.2578" y2="300.2578"/><text fill="#000000" font-family="sans-serif" font-size="13" font-weight="bold" lengthAdjust="spacing" textLength="9" x="63" y="295.1919">4</text><text fill="#000000" font-family="sans-serif" font-size="13" lengthAdjust="spacing" textLength="61" x="76" y="295.1919">Authorize</text><line style="stroke:#A80036;stroke-width:1.0;" x1="490" x2="532" y1="329.3906" y2="329.3906"/><line style="stroke:#A80036;stroke-width:1.0;" x1="532" x2="532" y1="329.3906" y2="342.3906"/><line style="stroke:#A80036;stroke-width:1.0;" x1="491" x2="532" y1="342.3906" y2="342.3906"/><polygon fill="#A80036" points="501,338.3906,491,342.3906,501,346.3906,497,342.3906" style="stroke:#A80036;stroke-width:1.0;"/><text fill="#000000" font-family="sans-serif" font-size="13" font-weight="bold" lengthAdjust="spacing" textLength="9" x="497" y="324.3247">5</text><text fill="#000000" font-family="sans-serif" font-size="13" lengthAdjust="spacing" textLength="289" x="510" y="324.3247">Login &amp; Record login status &amp; Generate code</text><polygon fill="#A80036" points="220,367.5234,210,371.5234,220,375.5234,216,371.5234" style="stroke:#A80036;stroke-width:1.0;"/><line style="stroke:#A80036;stroke-width:1.0;" x1="214" x2="489" y1="371.5234" y2="371.5234"/><text fill="#000000" font-family="sans-serif" font-size="13" font-weight="bold" lengthAdjust="spacing" textLength="9" x="226" y="366.4575">6</text><text fill="#000000" font-family="sans-serif" font-size="13" lengthAdjust="spacing" textLength="187" x="239" y="366.4575">Redirect to 3rd App with code</text><polygon fill="#A80036" points="478,396.6563,488,400.6563,478,404.6563,482,400.6563" style="stroke:#A80036;stroke-width:1.0;"/><line style="stroke:#A80036;stroke-width:1.0;" x1="209" x2="484" y1="400.6563" y2="400.6563"/><text fill="#000000" font-family="sans-serif" font-size="13" font-weight="bold" lengthAdjust="spacing" textLength="9" x="216" y="395.5903">7</text><text fill="#000000" font-family="sans-serif" font-size="13" lengthAdjust="spacing" textLength="182" x="229" y="395.5903">Send post request with code</text><rect fill="#EEEEEE" filter="url(#fjqtaa9e58qy)" height="3" style="stroke:#EEEEEE;stroke-width:1.0;" width="1000" x="0" y="429.2227"/><line style="stroke:#000000;stroke-width:1.0;" x1="0" x2="1000" y1="429.2227" y2="429.2227"/><line style="stroke:#000000;stroke-width:1.0;" x1="0" x2="1000" y1="432.2227" y2="432.2227"/><rect fill="#EEEEEE" filter="url(#fjqtaa9e58qy)" height="23.1328" style="stroke:#000000;stroke-width:2.0;" width="187" x="406.5" y="418.6563"/><text fill="#000000" font-family="sans-serif" font-size="13" font-weight="bold" lengthAdjust="spacing" textLength="173" x="412.5" y="434.7231">Generate Access Token</text><line style="stroke:#A80036;stroke-width:1.0;" x1="490" x2="532" y1="472.9219" y2="472.9219"/><line style="stroke:#A80036;stroke-width:1.0;" x1="532" x2="532" y1="472.9219" y2="485.9219"/><line style="stroke:#A80036;stroke-width:1.0;" x1="491" x2="532" y1="485.9219" y2="485.9219"/><polygon fill="#A80036" points="501,481.9219,491,485.9219,501,489.9219,497,485.9219" style="stroke:#A80036;stroke-width:1.0;"/><text fill="#000000" font-family="sans-serif" font-size="13" font-weight="bold" lengthAdjust="spacing" textLength="9" x="497" y="467.856">8</text><text fill="#000000" font-family="sans-serif" font-size="13" lengthAdjust="spacing" textLength="238" x="510" y="467.856">Generate ID_TOKEN, ACCESS_TOKEN</text><path d="M760,458.2891 L760,483.2891 L986,483.2891 L986,468.2891 L976,458.2891 L760,458.2891 " fill="#FBFB77" filter="url(#fjqtaa9e58qy)" style="stroke:#A80036;stroke-width:1.0;"/><path d="M976,458.2891 L976,468.2891 L986,468.2891 L976,458.2891 " fill="#FBFB77" style="stroke:#A80036;stroke-width:1.0;"/><text fill="#000000" font-family="sans-serif" font-size="13" lengthAdjust="spacing" textLength="205" x="766" y="475.356">ID_TOKEN is the key of the OIDC</text><polygon fill="#A80036" points="220,511.0547,210,515.0547,220,519.0547,216,515.0547" style="stroke:#A80036;stroke-width:1.0;"/><line style="stroke:#A80036;stroke-width:1.0;" x1="214" x2="489" y1="515.0547" y2="515.0547"/><text fill="#000000" font-family="sans-serif" font-size="13" font-weight="bold" lengthAdjust="spacing" textLength="9" x="226" y="509.9888">9</text><text fill="#000000" font-family="sans-serif" font-size="13" lengthAdjust="spacing" textLength="244" x="239" y="509.9888">Return ID_TOKEN and ACCESS_TOKEN</text><line style="stroke:#A80036;stroke-width:1.0;" x1="209" x2="251" y1="544.1875" y2="544.1875"/><line style="stroke:#A80036;stroke-width:1.0;" x1="251" x2="251" y1="544.1875" y2="557.1875"/><line style="stroke:#A80036;stroke-width:1.0;" x1="210" x2="251" y1="557.1875" y2="557.1875"/><polygon fill="#A80036" points="220,553.1875,210,557.1875,220,561.1875,216,557.1875" style="stroke:#A80036;stroke-width:1.0;"/><text fill="#000000" font-family="sans-serif" font-size="13" font-weight="bold" lengthAdjust="spacing" textLength="18" x="216" y="539.1216">10</text><text fill="#000000" font-family="sans-serif" font-size="13" lengthAdjust="spacing" textLength="211" x="238" y="539.1216">Record login status via ID_TOKEN</text><path d="M461,529.5547 L461,554.5547 L815,554.5547 L815,539.5547 L805,529.5547 L461,529.5547 " fill="#FBFB77" filter="url(#fjqtaa9e58qy)" style="stroke:#A80036;stroke-width:1.0;"/><path d="M805,529.5547 L805,539.5547 L815,539.5547 L805,529.5547 " fill="#FBFB77" style="stroke:#A80036;stroke-width:1.0;"/><text fill="#000000" font-family="sans-serif" font-size="13" lengthAdjust="spacing" textLength="333" x="467" y="546.6216">3rd party parse ID_TOKEN to identify who is endUser</text><polygon fill="#A80036" points="67,582.3203,57,586.3203,67,590.3203,63,586.3203" style="stroke:#A80036;stroke-width:1.0;"/><line style="stroke:#A80036;stroke-width:1.0;stroke-dasharray:2.0,2.0;" x1="61" x2="208" y1="586.3203" y2="586.3203"/><text fill="#000000" font-family="sans-serif" font-size="13" font-weight="bold" lengthAdjust="spacing" textLength="18" x="73" y="581.2544">11</text><text fill="#000000" font-family="sans-serif" font-size="13" lengthAdjust="spacing" textLength="95" x="95" y="581.2544">Show login info</text><text fill="#000000" font-family="sans-serif" font-size="11" lengthAdjust="spacing" textLength="108" x="219" y="618.5308">Some time passed</text><polygon fill="#A80036" points="197,652.2578,207,656.2578,197,660.2578,201,656.2578" style="stroke:#A80036;stroke-width:1.0;"/><line style="stroke:#A80036;stroke-width:1.0;" x1="56" x2="203" y1="656.2578" y2="656.2578"/><text fill="#000000" font-family="sans-serif" font-size="13" font-weight="bold" lengthAdjust="spacing" textLength="18" x="63" y="651.1919">12</text><text fill="#000000" font-family="sans-serif" font-size="13" lengthAdjust="spacing" textLength="107" x="85" y="651.1919">Click somewhere</text><polygon fill="#A80036" points="478,681.3906,488,685.3906,478,689.3906,482,685.3906" style="stroke:#A80036;stroke-width:1.0;"/><line style="stroke:#A80036;stroke-width:1.0;" x1="209" x2="484" y1="685.3906" y2="685.3906"/><text fill="#000000" font-family="sans-serif" font-size="13" font-weight="bold" lengthAdjust="spacing" textLength="18" x="216" y="680.3247">13</text><text fill="#000000" font-family="sans-serif" font-size="13" lengthAdjust="spacing" textLength="186" x="238" y="680.3247">Get info with ACCESS_TOKEN</text><polygon fill="#A80036" points="220,710.5234,210,714.5234,220,718.5234,216,714.5234" style="stroke:#A80036;stroke-width:1.0;"/><line style="stroke:#A80036;stroke-width:1.0;stroke-dasharray:2.0,2.0;" x1="214" x2="489" y1="714.5234" y2="714.5234"/><text fill="#000000" font-family="sans-serif" font-size="13" font-weight="bold" lengthAdjust="spacing" textLength="18" x="226" y="709.4575">14</text><text fill="#000000" font-family="sans-serif" font-size="13" lengthAdjust="spacing" textLength="23" x="248" y="709.4575">Info</text><polygon fill="#A80036" points="67,739.6563,57,743.6563,67,747.6563,63,743.6563" style="stroke:#A80036;stroke-width:1.0;"/><line style="stroke:#A80036;stroke-width:1.0;stroke-dasharray:2.0,2.0;" x1="61" x2="208" y1="743.6563" y2="743.6563"/><text fill="#000000" font-family="sans-serif" font-size="13" font-weight="bold" lengthAdjust="spacing" textLength="18" x="73" y="738.5903">15</text><text fill="#000000" font-family="sans-serif" font-size="13" lengthAdjust="spacing" textLength="77" x="95" y="738.5903">Refresh App</text><!--SRC=[VLDDRzf04BtlhnYvKaMbb4jlaQX47OfGen11SgjKRUm1hp0xxkuubFxwpgvjR23fnH_pyUQzDxkwPhBr_WMTyZjZmP57fTXmYP0i5tSff9GZV2_fa2YbCoO7oSpcyEpHmMZs_2a1xK4Y8Q3K2_s1v8lBeTAEZmbyk3VRWh-LDQeGCPcfjEL12Koh2dxQ23VTekNHwh71b8H2cIIGBUwoGWkFfUODkNs7FNU8zXmyyfxMN90pVpKRih16zufkjEom9Tc4-X6JoSBx6YyQW_p9HBK2uVFNmEiMfbc6taEG4NW64I5rWhs55UR6OSR0195GEw-lkUnu88QIjiRUW1iqnv2OjPN536aCEZlAKl4-_7t4-IZ4CXBQ3QndpRMNw1mjEiq8cGY-WWcIXu9QtN0mN3GTRpYm3jPMv5da_AvHtdrviFiqiZNpYNPenUl_Q3YrBEv-FIr_p1vkO9gci_Mw-LFAaYHTE1UgAm7ZWGk47Hw1Dl4px2CkFfI_8vPhPqzZG4ln-QHES5DzRUchqQVsCrxzqPUdxwK4NqqkDy1iZd0eAF36zbuDk8QnChSz2U9oGOTsih4RKcey7gzfZy167fNs7dC9gQiZd9Ocsu6NqaE13jLRAvmZHzHcSnS635phC1UHmHN75MuS-Y9U5VKF]--></g></svg>